# xmcd
#
# Track frame offsets:
#	225
#	34811
#	47121
#	65986
#	81547
#	101658
#	126601
#	145690
#	160885
#	175297
#
# Disc length: 3153 seconds
#
# Revision: 2
# Processed by: cddbd v1.5.1PL0 Copyright (c) Steve Scherf et al.
# Submitted via: audiograbber 1.83.01
#
DISCID=990c4e0a
DTITLE=Tony Sheridan - The Beat Brothers
DYEAR=1900
DGENRE=
TTITLE0=Skinny Minnie
TTITLE1=Lucille
TTITLE2=My Bonnie (Is Over The Ocean)
TTITLE3=Good Golly Miss Molly
TTITLE4=Mess Around
TTITLE5=Georgia On My Mind
TTITLE6=Blues (Instrumental)
TTITLE7=Feel It (A.K.A. Don't Fight It)
TTITLE8=Turn On Your Love Light
TTITLE9=Beatles Interview
EXTD=
EXTT0=
EXTT1=
EXTT2=
EXTT3=
EXTT4=
EXTT5=
EXTT6=
EXTT7=
EXTT8=
EXTT9=
PLAYORDER=
